HIERARCHY
ROOT Hips
{
  OFFSET 47.1953 84.0183 -1.88948
  CHANNELS 6 Xposition Yposition Zposition Zrotation Xrotation Yrotation
  JOINT spine
  {
    OFFSET 0 6.24479 0.359107
    CHANNELS 3 Zrotation Xrotation Yrotation
    JOINT spine1
    {
      OFFSET 0 9.06941 0
      CHANNELS 3 Zrotation Xrotation Yrotation
      JOINT spine2
      {
        OFFSET 0 8.69014 0
        CHANNELS 3 Zrotation Xrotation Yrotation
        JOINT Neck
        {
          OFFSET 0 22.3112 1.06372
          CHANNELS 3 Zrotation Xrotation Yrotation
          JOINT Head
          {
            OFFSET 0 6.74081 0
            CHANNELS 3 Zrotation Xrotation Yrotation
            End Site
            {
              OFFSET 0 16.3165 -5.38097
            }
          }
        }
        JOINT RightShoulder
        {
          OFFSET -3.65916 9.38468 -0.509514
          CHANNELS 3 Zrotation Xrotation Yrotation
          JOINT RightArm
          {
            OFFSET 0 12.3089 0
            CHANNELS 3 Zrotation Xrotation Yrotation
            JOINT RightArmRoll
            {
              OFFSET 0 6.21375 0
              CHANNELS 3 Zrotation Xrotation Yrotation
              JOINT RightForeArm
              {
                OFFSET 0 18.0985 0
                CHANNELS 3 Zrotation Xrotation Yrotation
                JOINT RightForeArmRoll
                {
                  OFFSET 0 6.97279 0
                  CHANNELS 3 Zrotation Xrotation Yrotation
                  JOINT RightHand
                  {
                    OFFSET 0 13.9929 0
                    CHANNELS 3 Zrotation Xrotation Yrotation
                    End Site
                    {
                      OFFSET 0 0 0
                    }
                  }
                }
              }
            }
          }
        }
        JOINT LeftShoulder
        {
          OFFSET 3.65916 9.38468 -0.509514
          CHANNELS 3 Zrotation Xrotation Yrotation
          JOINT LeftArm
          {
            OFFSET 0 12.3089 0
            CHANNELS 3 Zrotation Xrotation Yrotation
            JOINT LeftArmRoll
            {
              OFFSET 0 6.21375 0
              CHANNELS 3 Zrotation Xrotation Yrotation
              JOINT LeftForeArm
              {
                OFFSET 0 18.0985 0
                CHANNELS 3 Zrotation Xrotation Yrotation
                JOINT LeftForeArmRoll
                {
                  OFFSET 0 6.97279 0
                  CHANNELS 3 Zrotation Xrotation Yrotation
                  JOINT LeftHand
                  {
                    OFFSET 0 13.9929 0
                    CHANNELS 3 Zrotation Xrotation Yrotation
                    End Site
                    {
                      OFFSET 0 0 0
                    }
                  }
                }
              }
            }
          }
        }
      }
    }
  }
  JOINT RightUpLeg
  {
    OFFSET -5.53515 -1.015 -0.851454
    CHANNELS 3 Zrotation Xrotation Yrotation
    JOINT RightUpLegRoll
    {
      OFFSET 0 16.4075 0
      CHANNELS 3 Zrotation Xrotation Yrotation
      JOINT RightLeg
      {
        OFFSET 0 -20.3181 0
        CHANNELS 3 Zrotation Xrotation Yrotation
        JOINT RightLegRoll
        {
          OFFSET 0 20.3846 0
          CHANNELS 3 Zrotation Xrotation Yrotation
          JOINT RightFoot
          {
            OFFSET 0 16.9668 0
            CHANNELS 3 Zrotation Xrotation Yrotation
            JOINT RightToeBase
            {
              OFFSET 0 14.1834 0
              CHANNELS 3 Zrotation Xrotation Yrotation
              End Site
              {
                OFFSET 0.0060118 6.8689 -0.791746
              }
            }
          }
        }
      }
    }
  }
  JOINT LeftUpLeg
  {
    OFFSET 5.53515 -1.015 -0.851454
    CHANNELS 3 Zrotation Xrotation Yrotation
    JOINT LeftUpLegRoll
    {
      OFFSET 0 16.4076 0
      CHANNELS 3 Zrotation Xrotation Yrotation
      JOINT LeftLeg
      {
        OFFSET 0 20.3181 0
        CHANNELS 3 Zrotation Xrotation Yrotation
        JOINT LeftLegRoll
        {
          OFFSET 0 20.5731 0
          CHANNELS 3 Zrotation Xrotation Yrotation
          JOINT LeftFoot
          {
            OFFSET 0 16.7783 0
            CHANNELS 3 Zrotation Xrotation Yrotation
            JOINT LeftToeBase
            {
              OFFSET 0 14.1834 0
              CHANNELS 3 Zrotation Xrotation Yrotation
              End Site
              {
                OFFSET -0.0269423 6.8689 -0.791746
              }
            }
          }
        }
      }
    }
  }
}
MOTION
Frames: 6
Frame Time: 0.00208333
48.5063 83.9932 -1.34185 1.34927 -0.244186 -2.09219 -0.12168 -1.08258 -0.0281264 -0.226995 1.83991 -0.0398164 -0.226703 3.48498 -0.0360359 0.686066 10.2838 0.325207 -0.910975 1.84941 0.46901 63.9512 -1.0682 -1.16443 110.605 10.3715 4.79691 -2.30072e-006 3.91737e-007 -2.24468e-006 12.5506 13.9021 -2.02808 -1.4879e-006 1.94486e-006 -3 8.02887 -4.95141 0.697668 -61.437 -7.98173 5.01043 -116.788 9.29796 -11.378 1.0138e-014 3.97569e-015 -6.36111e-015 -3.64332 21.9123 1.29721 6.06612e-006 1.00327e-006 2.99998 -8.02984 -4.95156 -0.697671 173.199 5.63887 3.90233 180 7.01597e-015 179.166 177.369 13.6877 179.372 1.84119e-006 -1.13921e-006 0.0435208 -17.7408 70.7676 21.8858 8.13429 25.2328 -3.4868 -176.521 0.313514 -2.48068 4.54188e-006 -4.6773e-006 -1.05857 -0.967092 -11.2622 0.701754 -2.08226e-006 -2.09158e-006 -0.382626 24.0631 73.5775 -25.6492 -8.12752 25.2345 3.48205 
48.5229 83.9862 -1.3513 1.34588 -0.237335 -2.09253 -0.120866 -1.08386 -0.0280332 -0.226514 1.83979 -0.0399533 -0.226206 3.48486 -0.0361796 0.695906 10.2805 0.322566 -0.914505 1.83634 0.468985 63.9617 -1.06751 -1.16515 110.594 10.3992 4.74606 -2.30072e-006 3.91737e-007 -2.24468e-006 12.5823 13.9253 -2.03361 -1.4879e-006 1.94486e-006 -3 8.02887 -4.95141 0.697668 -61.429 -7.9863 5.01294 -116.799 9.33942 -11.3268 -1.45113e-014 -5.56597e-015 -3.18055e-015 -3.66507 21.9614 1.30409 6.06612e-006 1.00327e-006 2.99998 -8.02984 -4.95156 -0.697671 173.211 5.65065 3.89132 180 7.01597e-015 179.166 177.377 13.6986 179.37 1.84119e-006 -1.13921e-006 0.0441449 -17.7454 70.7747 21.8926 8.13429 25.2328 -3.4868 -176.516 0.331153 -2.47888 4.54188e-006 -4.6773e-006 -1.05799 -0.962848 -11.28 0.702878 -2.08226e-006 -2.09158e-006 -0.382546 24.0657 73.584 -25.6597 -8.12752 25.2345 3.48205 
48.5125 83.9848 -1.35391 1.34247 -0.230532 -2.09272 -0.120044 -1.08526 -0.0278963 -0.226059 1.8396 -0.0400182 -0.225734 3.48467 -0.0362509 0.706523 10.2779 0.319677 -0.918601 1.82281 0.468904 63.9729 -1.06689 -1.16597 110.584 10.4271 4.69413 -2.30072e-006 3.91737e-007 -2.24468e-006 12.6149 13.9484 -2.03918 -1.4879e-006 1.94486e-006 -3 8.02887 -4.95141 0.697668 -61.4205 -7.99063 5.01531 -116.81 9.38111 -11.2752 -1.15295e-014 -3.18055e-015 3.18055e-015 -3.68691 22.0106 1.311 6.06612e-006 1.00327e-006 2.99998 -8.02984 -4.95156 -0.697671 173.222 5.66202 3.88044 180 7.01597e-015 179.166 177.385 13.7088 179.368 1.84119e-006 -1.13921e-006 0.0447508 -17.7495 70.7815 21.8991 8.13429 25.2328 -3.4868 -176.511 0.348706 -2.47713 4.54188e-006 -4.6773e-006 -1.0574 -0.958652 -11.2976 0.703991 -2.08226e-006 -2.09158e-006 -0.382427 24.0679 73.5902 -25.6698 -8.12752 25.2345 3.48205 
48.5274 83.986 -1.35799 1.33904 -0.223763 -2.09282 -0.119218 -1.08674 -0.0277289 -0.22562 1.83938 -0.040033 -0.22528 3.48445 -0.0362716 0.717685 10.2759 0.316614 -0.923093 1.80894 0.468785 63.9845 -1.06632 -1.16687 110.572 10.4552 4.64145 -2.30072e-006 3.91737e-007 -2.24468e-006 12.6483 13.9714 -2.04478 -1.4879e-006 1.94486e-006 -3 8.02887 -4.95141 0.697668 -61.4118 -7.99481 5.01756 -116.822 9.42296 -11.2234 -7.55382e-015 -3.97569e-015 -6.36111e-015 -3.70883 22.0598 1.31792 6.06612e-006 1.00327e-006 2.99998 -8.02984 -4.95156 -0.697671 173.234 5.67311 3.86966 180 7.01597e-015 179.166 177.393 13.7186 179.367 1.84119e-006 -1.13921e-006 0.0453438 -17.7531 70.788 21.9053 8.13429 25.2328 -3.4868 -176.507 0.366201 -2.4754 4.54188e-006 -4.6773e-006 -1.05679 -0.95449 -11.3149 0.705095 -2.08226e-006 -2.09158e-006 -0.382281 24.0696 73.5963 -25.6796 -8.12752 25.2345 3.48205 
48.5258 83.9808 -1.36037 1.33561 -0.217013 -2.09286 -0.118388 -1.08825 -0.0275439 -0.225192 1.83913 -0.040019 -0.224835 3.4842 -0.0362634 0.729158 10.2743 0.313452 -0.927811 1.79488 0.468643 63.9963 -1.06577 -1.1678 110.561 10.4832 4.58832 -2.30072e-006 3.91737e-007 -2.24468e-006 12.682 13.9944 -2.05041 -1.4879e-006 1.94486e-006 -3 8.02887 -4.95141 0.697668 -61.403 -7.9989 5.01976 -116.834 9.46491 -11.1714 6.55989e-015 7.95139e-016 -6.36111e-015 -3.73079 22.1091 1.32486 6.06612e-006 1.00327e-006 2.99998 -8.02984 -4.95156 -0.697671 173.245 5.68405 3.85894 180 7.01597e-015 179.166 177.4 13.7281 179.365 1.84119e-006 -1.13921e-006 0.0459294 -17.7564 70.7945 21.9114 8.13429 25.2328 -3.4868 -176.502 0.383662 -2.47369 4.54188e-006 -4.6773e-006 -1.05617 -0.950348 -11.332 0.706195 -2.08226e-006 -2.09158e-006 -0.382119 24.0712 73.6022 -25.6893 -8.12752 25.2345 3.48205 
48.4902 83.996 -1.35737 1.33218 -0.210268 -2.09289 -0.117558 -1.08978 -0.0273546 -0.224766 1.83888 -0.0399978 -0.224392 3.48395 -0.0362479 0.740708 10.2727 0.310265 -0.932586 1.78077 0.468496 64.0082 -1.06523 -1.16874 110.549 10.5113 4.53508 -2.30072e-006 3.91737e-007 -2.24468e-006 12.7159 14.0173 -2.05604 -1.4879e-006 1.94486e-006 -3 8.02887 -4.95141 0.697668 -61.3941 -8.00296 5.02195 -116.846 9.50688 -11.1193 -2.5842e-015 -7.95139e-016 -6.36111e-015 -3.75277 22.1584 1.33181 6.06612e-006 1.00327e-006 2.99998 -8.02984 -4.95156 -0.697671 173.256 5.69494 3.84822 180 7.01597e-015 179.165 177.408 13.7375 179.363 1.84119e-006 -1.13921e-006 0.0465133 -17.7598 70.8009 21.9175 8.13429 25.2328 -3.4868 -176.497 0.401114 -2.47198 4.54188e-006 -4.6773e-006 -1.05556 -0.94621 -11.3492 0.707295 -2.08226e-006 -2.09158e-006 -0.381954 24.0727 73.6081 -25.699 -8.12752 25.2345 3.48205 
